<mxfile host="www.draw.io" modified="2019-11-10T16:36:11.621Z" agent="Mozilla/5.0 (Windows NT 10.0; Win64; x64) AppleWebKit/537.36 (KHTML, like Gecko) Chrome/78.0.3904.97 Safari/537.36" etag="Rs5tI8eYp0uQGyRlZN7J" version="12.2.3" type="github" pages="1">
  <diagram id="fZ1uOFWpxyo5PxHyS2nE" name="Page-1">
    <mxGraphModel dx="854" dy="478" grid="1" gridSize="10" guides="1" tooltips="1" connect="1" arrows="1" fold="1" page="1" pageScale="1" pageWidth="850" pageHeight="1100" math="0" shadow="0">
      <root>
        <mxCell id="0"/>
        <mxCell id="1" parent="0"/>
        <mxCell id="CmozM7XqKRN06d-_v_2D-1" value="" style="ellipse;whiteSpace=wrap;html=1;aspect=fixed;fillColor=#e3c800;strokeColor=#B09500;fontColor=#ffffff;strokeWidth=3;" vertex="1" parent="1">
          <mxGeometry x="170" y="200" width="50" height="50" as="geometry"/>
        </mxCell>
        <mxCell id="CmozM7XqKRN06d-_v_2D-2" value="" style="ellipse;whiteSpace=wrap;html=1;aspect=fixed;fillColor=#e3c800;strokeColor=#B09500;fontColor=#ffffff;strokeWidth=3;" vertex="1" parent="1">
          <mxGeometry x="540" y="200" width="50" height="50" as="geometry"/>
        </mxCell>
        <mxCell id="CmozM7XqKRN06d-_v_2D-3" value="" style="endArrow=classic;html=1;entryX=0;entryY=0.5;entryDx=0;entryDy=0;strokeWidth=2;" edge="1" parent="1" target="CmozM7XqKRN06d-_v_2D-1">
          <mxGeometry width="50" height="50" relative="1" as="geometry">
            <mxPoint x="60" y="225" as="sourcePoint"/>
            <mxPoint x="220" y="270" as="targetPoint"/>
            <Array as="points">
              <mxPoint x="130" y="225"/>
            </Array>
          </mxGeometry>
        </mxCell>
        <mxCell id="CmozM7XqKRN06d-_v_2D-4" value="" style="endArrow=classic;html=1;strokeWidth=2;entryX=0;entryY=0.5;entryDx=0;entryDy=0;exitX=1;exitY=0.5;exitDx=0;exitDy=0;" edge="1" parent="1" source="CmozM7XqKRN06d-_v_2D-1" target="CmozM7XqKRN06d-_v_2D-2">
          <mxGeometry width="50" height="50" relative="1" as="geometry">
            <mxPoint x="60" y="320" as="sourcePoint"/>
            <mxPoint x="110" y="270" as="targetPoint"/>
          </mxGeometry>
        </mxCell>
        <mxCell id="CmozM7XqKRN06d-_v_2D-6" value="" style="ellipse;whiteSpace=wrap;html=1;aspect=fixed;fillColor=#008a00;strokeColor=#005700;fontColor=#ffffff;strokeWidth=3;" vertex="1" parent="1">
          <mxGeometry x="170" y="300" width="50" height="50" as="geometry"/>
        </mxCell>
        <mxCell id="CmozM7XqKRN06d-_v_2D-7" value="" style="ellipse;whiteSpace=wrap;html=1;aspect=fixed;fillColor=#008a00;strokeColor=#005700;fontColor=#ffffff;strokeWidth=3;" vertex="1" parent="1">
          <mxGeometry x="330" y="300" width="50" height="50" as="geometry"/>
        </mxCell>
        <mxCell id="CmozM7XqKRN06d-_v_2D-8" value="" style="ellipse;whiteSpace=wrap;html=1;aspect=fixed;fillColor=#008a00;strokeColor=#005700;fontColor=#ffffff;strokeWidth=3;" vertex="1" parent="1">
          <mxGeometry x="490" y="300" width="50" height="50" as="geometry"/>
        </mxCell>
        <mxCell id="CmozM7XqKRN06d-_v_2D-9" value="" style="endArrow=classic;html=1;strokeWidth=2;entryX=0;entryY=0.5;entryDx=0;entryDy=0;" edge="1" parent="1" target="CmozM7XqKRN06d-_v_2D-6">
          <mxGeometry width="50" height="50" relative="1" as="geometry">
            <mxPoint x="60" y="325" as="sourcePoint"/>
            <mxPoint x="110" y="370" as="targetPoint"/>
          </mxGeometry>
        </mxCell>
        <mxCell id="CmozM7XqKRN06d-_v_2D-10" value="" style="endArrow=classic;html=1;strokeWidth=2;entryX=0;entryY=0.5;entryDx=0;entryDy=0;" edge="1" parent="1">
          <mxGeometry width="50" height="50" relative="1" as="geometry">
            <mxPoint x="220" y="325" as="sourcePoint"/>
            <mxPoint x="330" y="325" as="targetPoint"/>
          </mxGeometry>
        </mxCell>
        <mxCell id="CmozM7XqKRN06d-_v_2D-11" value="" style="endArrow=classic;html=1;strokeWidth=2;entryX=0;entryY=0.5;entryDx=0;entryDy=0;" edge="1" parent="1" target="CmozM7XqKRN06d-_v_2D-8">
          <mxGeometry width="50" height="50" relative="1" as="geometry">
            <mxPoint x="380" y="324" as="sourcePoint"/>
            <mxPoint x="460" y="324" as="targetPoint"/>
          </mxGeometry>
        </mxCell>
        <mxCell id="CmozM7XqKRN06d-_v_2D-12" value="" style="endArrow=classic;html=1;strokeWidth=2;entryX=0.5;entryY=1;entryDx=0;entryDy=0;exitX=0.5;exitY=0;exitDx=0;exitDy=0;" edge="1" parent="1" source="CmozM7XqKRN06d-_v_2D-8" target="CmozM7XqKRN06d-_v_2D-2">
          <mxGeometry width="50" height="50" relative="1" as="geometry">
            <mxPoint x="50" y="430" as="sourcePoint"/>
            <mxPoint x="100" y="380" as="targetPoint"/>
          </mxGeometry>
        </mxCell>
        <mxCell id="CmozM7XqKRN06d-_v_2D-13" value="" style="ellipse;whiteSpace=wrap;html=1;aspect=fixed;fillColor=#f8cecc;strokeColor=#b85450;strokeWidth=3;" vertex="1" parent="1">
          <mxGeometry x="130" y="400" width="50" height="50" as="geometry"/>
        </mxCell>
        <mxCell id="CmozM7XqKRN06d-_v_2D-14" value="" style="ellipse;whiteSpace=wrap;html=1;aspect=fixed;fillColor=#f8cecc;strokeColor=#b85450;strokeWidth=3;" vertex="1" parent="1">
          <mxGeometry x="270" y="400" width="50" height="50" as="geometry"/>
        </mxCell>
        <mxCell id="CmozM7XqKRN06d-_v_2D-15" value="" style="ellipse;whiteSpace=wrap;html=1;aspect=fixed;fillColor=#f8cecc;strokeColor=#b85450;strokeWidth=3;" vertex="1" parent="1">
          <mxGeometry x="370" y="400" width="50" height="50" as="geometry"/>
        </mxCell>
        <mxCell id="CmozM7XqKRN06d-_v_2D-16" value="" style="ellipse;whiteSpace=wrap;html=1;aspect=fixed;fillColor=#f8cecc;strokeColor=#b85450;strokeWidth=3;" vertex="1" parent="1">
          <mxGeometry x="465" y="400" width="50" height="50" as="geometry"/>
        </mxCell>
        <mxCell id="CmozM7XqKRN06d-_v_2D-17" value="" style="endArrow=classic;html=1;strokeWidth=2;entryX=0;entryY=0.5;entryDx=0;entryDy=0;" edge="1" parent="1" target="CmozM7XqKRN06d-_v_2D-13">
          <mxGeometry width="50" height="50" relative="1" as="geometry">
            <mxPoint x="60" y="425" as="sourcePoint"/>
            <mxPoint x="180" y="335" as="targetPoint"/>
          </mxGeometry>
        </mxCell>
        <mxCell id="CmozM7XqKRN06d-_v_2D-18" value="" style="endArrow=classic;html=1;strokeWidth=2;entryX=0;entryY=0.5;entryDx=0;entryDy=0;exitX=1;exitY=0.5;exitDx=0;exitDy=0;" edge="1" parent="1" source="CmozM7XqKRN06d-_v_2D-13" target="CmozM7XqKRN06d-_v_2D-14">
          <mxGeometry width="50" height="50" relative="1" as="geometry">
            <mxPoint x="180" y="470" as="sourcePoint"/>
            <mxPoint x="290" y="470" as="targetPoint"/>
          </mxGeometry>
        </mxCell>
        <mxCell id="CmozM7XqKRN06d-_v_2D-19" value="" style="endArrow=classic;html=1;strokeWidth=2;entryX=0;entryY=0.5;entryDx=0;entryDy=0;exitX=1;exitY=0.5;exitDx=0;exitDy=0;" edge="1" parent="1" source="CmozM7XqKRN06d-_v_2D-14" target="CmozM7XqKRN06d-_v_2D-15">
          <mxGeometry width="50" height="50" relative="1" as="geometry">
            <mxPoint x="80" y="445" as="sourcePoint"/>
            <mxPoint x="190" y="445" as="targetPoint"/>
          </mxGeometry>
        </mxCell>
        <mxCell id="CmozM7XqKRN06d-_v_2D-20" value="Master" style="text;html=1;strokeColor=none;fillColor=none;align=center;verticalAlign=middle;whiteSpace=wrap;rounded=0;" vertex="1" parent="1">
          <mxGeometry x="80" y="200" width="40" height="20" as="geometry"/>
        </mxCell>
        <mxCell id="CmozM7XqKRN06d-_v_2D-21" value="Develop" style="text;html=1;strokeColor=none;fillColor=none;align=center;verticalAlign=middle;whiteSpace=wrap;rounded=0;" vertex="1" parent="1">
          <mxGeometry x="80" y="290" width="40" height="20" as="geometry"/>
        </mxCell>
        <mxCell id="CmozM7XqKRN06d-_v_2D-22" value="Feature" style="text;html=1;strokeColor=none;fillColor=none;align=center;verticalAlign=middle;whiteSpace=wrap;rounded=0;" vertex="1" parent="1">
          <mxGeometry x="80" y="390" width="40" height="20" as="geometry"/>
        </mxCell>
        <mxCell id="CmozM7XqKRN06d-_v_2D-23" value="" style="endArrow=classic;html=1;strokeWidth=2;entryX=0;entryY=0.5;entryDx=0;entryDy=0;exitX=1;exitY=0.5;exitDx=0;exitDy=0;" edge="1" parent="1" source="CmozM7XqKRN06d-_v_2D-15" target="CmozM7XqKRN06d-_v_2D-16">
          <mxGeometry width="50" height="50" relative="1" as="geometry">
            <mxPoint x="330" y="435" as="sourcePoint"/>
            <mxPoint x="380" y="435" as="targetPoint"/>
          </mxGeometry>
        </mxCell>
        <mxCell id="CmozM7XqKRN06d-_v_2D-24" value="" style="endArrow=classic;html=1;strokeWidth=2;entryX=0.5;entryY=1;entryDx=0;entryDy=0;exitX=0.5;exitY=0;exitDx=0;exitDy=0;" edge="1" parent="1" source="CmozM7XqKRN06d-_v_2D-14" target="CmozM7XqKRN06d-_v_2D-7">
          <mxGeometry width="50" height="50" relative="1" as="geometry">
            <mxPoint x="340" y="445" as="sourcePoint"/>
            <mxPoint x="390" y="445" as="targetPoint"/>
          </mxGeometry>
        </mxCell>
        <mxCell id="CmozM7XqKRN06d-_v_2D-25" value="" style="endArrow=classic;html=1;strokeWidth=2;entryX=0.5;entryY=1;entryDx=0;entryDy=0;exitX=1;exitY=0;exitDx=0;exitDy=0;" edge="1" parent="1" source="CmozM7XqKRN06d-_v_2D-15" target="CmozM7XqKRN06d-_v_2D-8">
          <mxGeometry width="50" height="50" relative="1" as="geometry">
            <mxPoint x="350" y="455" as="sourcePoint"/>
            <mxPoint x="400" y="455" as="targetPoint"/>
          </mxGeometry>
        </mxCell>
        <mxCell id="CmozM7XqKRN06d-_v_2D-27" value="" style="ellipse;whiteSpace=wrap;html=1;aspect=fixed;fillColor=#bac8d3;strokeColor=#23445d;strokeWidth=3;" vertex="1" parent="1">
          <mxGeometry x="230" y="480" width="50" height="50" as="geometry"/>
        </mxCell>
        <mxCell id="CmozM7XqKRN06d-_v_2D-28" value="" style="ellipse;whiteSpace=wrap;html=1;aspect=fixed;fillColor=#bac8d3;strokeColor=#23445d;strokeWidth=3;" vertex="1" parent="1">
          <mxGeometry x="330" y="480" width="50" height="50" as="geometry"/>
        </mxCell>
        <mxCell id="CmozM7XqKRN06d-_v_2D-29" value="" style="ellipse;whiteSpace=wrap;html=1;aspect=fixed;fillColor=#bac8d3;strokeColor=#23445d;strokeWidth=3;" vertex="1" parent="1">
          <mxGeometry x="430" y="480" width="50" height="50" as="geometry"/>
        </mxCell>
        <mxCell id="CmozM7XqKRN06d-_v_2D-30" value="" style="ellipse;whiteSpace=wrap;html=1;aspect=fixed;fillColor=#bac8d3;strokeColor=#23445d;strokeWidth=3;" vertex="1" parent="1">
          <mxGeometry x="525" y="480" width="50" height="50" as="geometry"/>
        </mxCell>
        <mxCell id="CmozM7XqKRN06d-_v_2D-31" value="" style="endArrow=classic;html=1;strokeWidth=2;entryX=0;entryY=0.5;entryDx=0;entryDy=0;" edge="1" parent="1" target="CmozM7XqKRN06d-_v_2D-27">
          <mxGeometry width="50" height="50" relative="1" as="geometry">
            <mxPoint x="60" y="505" as="sourcePoint"/>
            <mxPoint x="240" y="415" as="targetPoint"/>
          </mxGeometry>
        </mxCell>
        <mxCell id="CmozM7XqKRN06d-_v_2D-32" value="" style="endArrow=classic;html=1;strokeWidth=2;entryX=0;entryY=0.5;entryDx=0;entryDy=0;exitX=1;exitY=0.5;exitDx=0;exitDy=0;" edge="1" parent="1" source="CmozM7XqKRN06d-_v_2D-27" target="CmozM7XqKRN06d-_v_2D-28">
          <mxGeometry width="50" height="50" relative="1" as="geometry">
            <mxPoint x="240" y="550" as="sourcePoint"/>
            <mxPoint x="350" y="550" as="targetPoint"/>
          </mxGeometry>
        </mxCell>
        <mxCell id="CmozM7XqKRN06d-_v_2D-33" value="" style="endArrow=classic;html=1;strokeWidth=2;entryX=0;entryY=0.5;entryDx=0;entryDy=0;exitX=1;exitY=0.5;exitDx=0;exitDy=0;" edge="1" parent="1" source="CmozM7XqKRN06d-_v_2D-28" target="CmozM7XqKRN06d-_v_2D-29">
          <mxGeometry width="50" height="50" relative="1" as="geometry">
            <mxPoint x="140" y="525" as="sourcePoint"/>
            <mxPoint x="250" y="525" as="targetPoint"/>
          </mxGeometry>
        </mxCell>
        <mxCell id="CmozM7XqKRN06d-_v_2D-34" value="Feature" style="text;html=1;strokeColor=none;fillColor=none;align=center;verticalAlign=middle;whiteSpace=wrap;rounded=0;" vertex="1" parent="1">
          <mxGeometry x="80" y="470" width="40" height="20" as="geometry"/>
        </mxCell>
        <mxCell id="CmozM7XqKRN06d-_v_2D-35" value="" style="endArrow=classic;html=1;strokeWidth=2;entryX=0;entryY=0.5;entryDx=0;entryDy=0;exitX=1;exitY=0.5;exitDx=0;exitDy=0;" edge="1" parent="1" source="CmozM7XqKRN06d-_v_2D-29" target="CmozM7XqKRN06d-_v_2D-30">
          <mxGeometry width="50" height="50" relative="1" as="geometry">
            <mxPoint x="390" y="515" as="sourcePoint"/>
            <mxPoint x="440" y="515" as="targetPoint"/>
          </mxGeometry>
        </mxCell>
        <mxCell id="CmozM7XqKRN06d-_v_2D-36" value="" style="endArrow=classic;html=1;strokeWidth=2;entryX=1;entryY=1;entryDx=0;entryDy=0;" edge="1" parent="1" target="CmozM7XqKRN06d-_v_2D-8">
          <mxGeometry width="50" height="50" relative="1" as="geometry">
            <mxPoint x="575" y="505" as="sourcePoint"/>
            <mxPoint x="650" y="505" as="targetPoint"/>
            <Array as="points"/>
          </mxGeometry>
        </mxCell>
        <mxCell id="CmozM7XqKRN06d-_v_2D-39" value="" style="endArrow=classic;html=1;strokeWidth=2;entryX=0.5;entryY=0;entryDx=0;entryDy=0;exitX=0.5;exitY=1;exitDx=0;exitDy=0;" edge="1" parent="1" source="CmozM7XqKRN06d-_v_2D-6" target="CmozM7XqKRN06d-_v_2D-27">
          <mxGeometry width="50" height="50" relative="1" as="geometry">
            <mxPoint x="50" y="600" as="sourcePoint"/>
            <mxPoint x="100" y="550" as="targetPoint"/>
          </mxGeometry>
        </mxCell>
        <mxCell id="CmozM7XqKRN06d-_v_2D-40" value="" style="endArrow=classic;html=1;strokeWidth=2;exitX=1;exitY=0;exitDx=0;exitDy=0;" edge="1" parent="1" source="CmozM7XqKRN06d-_v_2D-16">
          <mxGeometry width="50" height="50" relative="1" as="geometry">
            <mxPoint x="465" y="400" as="sourcePoint"/>
            <mxPoint x="515" y="350" as="targetPoint"/>
          </mxGeometry>
        </mxCell>
      </root>
    </mxGraphModel>
  </diagram>
</mxfile>
